# xmcd CD database file
#
# Track frame offsets:
#	150
#	23320
#	42575
#	58022
#	76095
#	92777
#	119500
#	140450
#	159972
#	183805
#
# Disc length: 2663 seconds
#
# Revision: 2
# Processed by: cddbd v1.5.2PL0 Copyright (c) Steve Scherf et al.
# Submitted via: CD2WAV32(JP) R3.22
#
DISCID=730a650a
DTITLE=森川美穂 - 情熱の瞳
DYEAR=1994
DGENRE=JPOP
TTITLE0=恋していれば大丈夫
TTITLE1=戦いは終わらない!
TTITLE2=U・RA・HA・RA
TTITLE3=もう一度のさよなら
TTITLE4=終わった恋の物語
TTITLE5=優しくしないで
TTITLE6=ナイト・トレイン
TTITLE7=シャイニー・サニー・フェイス
TTITLE8=心のままに
TTITLE9=傷痕(アルバム・ヴァージョン)
EXTD=
EXTT0=
EXTT1=
EXTT2=
EXTT3=
EXTT4=
EXTT5=
EXTT6=
EXTT7=
EXTT8=
EXTT9=
PLAYORDER=
